# Blender v2.79 (sub 0) OBJ File: ''
# www.blender.org
o SM_Plant_Bush_01
v 0.575195 0.127320 0.364334
v 0.690857 0.281567 0.316301
v 0.635353 0.294762 0.461323
v 0.622902 0.196209 -0.018777
v 0.710472 0.598717 0.322817
v 0.625469 0.700294 0.428242
v 0.719337 0.426983 0.004074
v 0.680862 0.805962 0.224119
v 0.332676 0.631256 0.707336
v 0.459511 0.859047 0.430885
v 0.531612 0.286190 -0.241714
v 0.807480 0.590263 -0.271023
v 0.629181 0.588490 -0.595886
v 0.776077 0.810814 -0.252117
v 0.739288 0.628506 -0.046689
v 0.646553 1.188324 -0.632427
v 0.633369 1.216522 -0.470657
v 0.541386 1.193039 -0.161802
v 0.718964 0.943619 0.006273
v 0.613758 1.402618 0.162842
v 0.332138 1.395325 -0.200544
v 0.321915 1.496429 -0.004692
v 0.340164 1.180595 -0.323156
v 0.186417 1.766876 -0.096161
v 0.294258 1.673309 -0.092487
v 0.442177 1.044083 0.367886
v 0.577824 1.389175 0.277174
v 0.396454 1.421371 0.383259
v 0.299229 1.465179 0.243305
v 0.067998 1.945297 -0.050237
v -0.248936 1.792831 -0.039418
v -0.045781 1.518311 0.134335
v -0.018242 2.040512 -0.275644
v -0.144550 1.999023 -0.187000
v 0.162031 1.856613 -0.238646
v 0.066240 1.784363 -0.322727
v -0.139775 1.873016 -0.306246
v -0.170635 1.338470 -0.460670
v -0.260605 1.584946 -0.264624
v -0.246798 1.420593 -0.234734
v -0.273037 1.569016 -0.005972
v -0.222275 1.441620 0.084764
v -0.369961 1.440414 0.081382
v -0.463699 1.298065 -0.014998
v -0.388985 1.018555 0.080896
v -0.450760 0.966576 -0.232061
v -0.387333 1.004211 0.246441
v -0.602470 0.900459 -0.145200
v -0.726250 1.030418 0.252417
v -0.612869 0.983994 0.400051
v -0.209541 1.089104 -0.379356
v -0.350536 0.925499 -0.391800
v -0.463154 0.807442 -0.233116
v -0.490448 0.441395 -0.221199
v -0.603096 0.427776 -0.189388
v -0.506054 0.772690 -0.540512
v -0.422100 0.932449 -0.637192
v -0.369572 0.669868 -0.662369
v -0.408905 0.407238 -0.365967
v -0.348438 0.346043 -0.186764
v -0.472851 0.208759 -0.047237
v -0.742584 0.939812 0.345955
v -0.772507 0.905823 0.154063
v -0.807480 0.528130 0.308102
v -0.486279 0.426949 0.574127
v -0.712189 0.257879 0.281874
v -0.658600 0.195717 0.397705
v -0.273321 0.091638 0.155235
v -0.480900 0.216225 0.497791
v -0.065098 0.000000 0.151834
v -0.054688 0.075918 -0.242302
v -0.175615 0.239355 0.450184
v -0.253096 0.369637 -0.571594
v 0.065967 0.349888 -0.649803
v 0.079433 0.169933 -0.430176
v 0.328175 0.054535 0.069830
v 0.313662 0.122996 -0.219048
v 0.416466 0.301041 -0.436344
v 0.305479 0.503178 -0.605339
v -0.020928 0.158895 0.558365
v 0.202959 0.174099 0.608147
v 0.205078 0.804047 -0.589920
v 0.070488 0.529594 -0.707336
v 0.101367 1.309113 -0.427711
v 0.280088 1.214584 -0.417595
v 0.513458 1.227676 -0.576881
v -0.139590 0.633892 -0.695045
v -0.264160 0.882820 -0.652390
v -0.071494 0.749985 -0.530537
v -0.118056 0.932846 -0.465542
v 0.018262 1.410202 -0.458241
v -0.178633 0.401520 0.547855
v -0.107802 0.272776 0.658524
v -0.091094 0.601418 0.696991
v -0.258535 0.789497 0.543800
v -0.097315 0.967354 0.607094
v -0.271435 0.888947 0.415516
v 0.221436 0.286751 0.704124
v 0.310575 0.393890 0.635338
v 0.114893 0.769531 0.634556
v 0.023037 1.118538 0.455879
v -0.112012 1.308319 0.396931
vt 0.062805 0.373047
vt 0.062805 0.373047
vt 0.062805 0.373047
vt 0.062805 0.373047
vt 0.062805 0.373047
vt 0.062805 0.373047
vt 0.062805 0.373047
vt 0.062805 0.373047
vt 0.062805 0.373047
vt 0.062805 0.373047
vt 0.062805 0.373047
vt 0.062805 0.373047
vt 0.062805 0.373047
vt 0.062805 0.373047
vt 0.062805 0.373047
vt 0.062805 0.373047
vt 0.062805 0.373047
vt 0.062805 0.373047
vt 0.062805 0.373047
vt 0.062805 0.373047
vt 0.062805 0.373047
vt 0.062805 0.373047
vt 0.062805 0.373047
vt 0.062805 0.373047
vt 0.062805 0.373047
vt 0.062805 0.373047
vt 0.062805 0.373047
vt 0.062805 0.373047
vt 0.062805 0.373047
vt 0.062805 0.373047
vt 0.062805 0.373047
vt 0.062805 0.373047
vt 0.062805 0.373047
vt 0.062805 0.373047
vt 0.062805 0.373047
vt 0.062805 0.373047
vt 0.062805 0.373047
vt 0.062805 0.373047
vt 0.062805 0.373047
vt 0.062805 0.373047
vt 0.062805 0.373047
vt 0.062805 0.373047
vt 0.062805 0.373047
vt 0.062805 0.373047
vt 0.062805 0.373047
vt 0.062805 0.373047
vt 0.062805 0.373047
vt 0.062805 0.373047
vt 0.062805 0.373047
vt 0.062805 0.373047
vt 0.062805 0.373047
vt 0.062805 0.373047
vt 0.062805 0.373047
vt 0.062805 0.373047
vt 0.062805 0.373047
vt 0.062805 0.373047
vt 0.062805 0.373047
vt 0.062805 0.373047
vt 0.062805 0.373047
vt 0.062805 0.373047
vt 0.062805 0.373047
vt 0.062805 0.373047
vt 0.062805 0.373047
vt 0.062805 0.373047
vt 0.062805 0.373047
vt 0.062805 0.373047
vt 0.062805 0.373047
vt 0.062805 0.373047
vt 0.062805 0.373047
vt 0.062805 0.373047
vt 0.062805 0.373047
vt 0.062805 0.373047
vt 0.062805 0.373047
vt 0.062805 0.373047
vt 0.062805 0.373047
vt 0.062805 0.373047
vt 0.062805 0.373047
vt 0.062805 0.373047
vt 0.062805 0.373047
vt 0.062805 0.373047
vt 0.062805 0.373047
vt 0.062805 0.373047
vt 0.062805 0.373047
vt 0.062805 0.373047
vt 0.062805 0.373047
vt 0.062805 0.373047
vt 0.062805 0.373047
vt 0.062805 0.373047
vt 0.062805 0.373047
vt 0.062805 0.373047
vt 0.062805 0.373047
vt 0.062805 0.373047
vt 0.062805 0.373047
vt 0.062805 0.373047
vt 0.062805 0.373047
vt 0.062805 0.373047
vt 0.062805 0.373047
vt 0.062805 0.373047
vt 0.062805 0.373047
vt 0.062805 0.373047
vt 0.062805 0.373047
vt 0.062805 0.373047
vn 0.7990 -0.4905 0.3480
vn 0.7990 -0.6013 -0.0080
vn 0.9299 -0.0631 0.3625
vn 0.8101 0.0708 0.5820
vn 0.9961 -0.0627 0.0627
vn 0.8642 0.3143 0.3929
vn 0.6768 0.0787 0.7319
vn 0.6055 0.6291 0.4875
vn 0.5206 0.5285 0.6705
vn 0.9210 -0.3779 -0.0945
vn 0.8338 -0.2989 -0.4641
vn 0.7244 -0.6693 -0.1653
vn 0.6706 -0.6469 -0.3629
vn 0.9568 0.1107 0.2688
vn 0.8658 0.1653 -0.4723
vn 0.9404 0.3398 0.0158
vn 0.8461 0.4507 0.2846
vn 0.7959 0.3782 0.4728
vn 0.9943 -0.0790 0.0710
vn 0.9560 -0.0237 0.2923
vn 0.7835 0.1489 -0.6033
vn 0.9957 0.0475 0.0791
vn 0.8953 0.2906 0.3377
vn 0.9586 0.1336 0.2516
vn 0.8530 0.3318 -0.4028
vn 0.6456 0.5669 -0.5117
vn 0.4714 0.7935 -0.3850
vn -0.1025 0.9936 0.0473
vn 0.5499 0.4320 -0.7149
vn 0.5741 0.4247 -0.7000
vn 0.3627 0.3785 -0.8516
vn 0.9897 0.1414 -0.0236
vn 0.6920 0.2910 0.6606
vn 0.6157 0.1500 0.7736
vn 0.9226 -0.2918 0.2524
vn 0.5120 0.0236 0.8586
vn 0.2050 0.9618 0.1813
vn 0.2514 0.9586 0.1336
vn 0.2291 0.9630 0.1423
vn -0.1813 0.4492 0.8748
vn -0.2203 0.4012 0.8891
vn 0.8657 0.4801 0.1417
vn 0.8418 0.5114 0.1731
vn -0.0236 0.9193 0.3929
vn 0.3695 0.4560 0.8097
vn 0.4796 0.3102 -0.8208
vn 0.4804 0.3098 -0.8205
vn 0.4814 0.3078 -0.8207
vn 0.8196 0.5674 -0.0788
vn 0.6390 0.6942 0.3313
vn -0.5950 0.5404 -0.5949
vn 0.0000 0.1810 -0.9835
vn 0.0393 0.2756 -0.9605
vn -0.7499 0.2210 -0.6236
vn -0.8740 0.3150 -0.3701
vn -0.9257 0.3007 -0.2294
vn -0.9919 -0.0630 0.1102
vn -0.4095 0.4174 0.8112
vn -0.4863 0.1804 0.8550
vn -0.2924 0.6480 0.7033
vn -0.9831 0.0787 -0.1652
vn -0.0236 0.5743 0.8183
vn -0.8172 0.5737 -0.0550
vn -0.7340 0.5288 -0.4262
vn -0.7413 0.0316 0.6704
vn -0.9586 -0.1808 0.2199
vn -0.8003 0.5963 0.0627
vn -0.4090 0.9124 -0.0158
vn 0.0710 0.9539 -0.2917
vn 0.0785 0.9667 0.2437
vn -0.7564 0.3388 -0.5595
vn -0.3226 0.3461 -0.8810
vn -0.8360 0.0710 -0.5442
vn -0.7564 0.3388 -0.5594
vn -0.5116 0.0472 -0.8579
vn -0.2685 -0.0079 -0.9633
vn -0.7110 0.7031 0.0158
vn -0.7870 0.5666 0.2440
vn -0.6934 -0.0709 -0.7170
vn -0.9890 0.0785 0.1256
vn -0.8343 -0.4014 -0.3778
vn -0.7569 -0.4337 -0.4889
vn -0.7544 -0.4377 -0.4891
vn -0.7570 -0.4347 -0.4878
vn -0.5371 -0.8372 -0.1027
vn -0.1659 -0.5452 -0.8217
vn -0.1882 -0.6115 -0.7685
vn -0.4635 0.6756 0.5734
vn -0.4635 0.6755 0.5734
vn -0.9555 0.2764 0.1027
vn -0.9819 0.1414 0.1257
vn -0.3767 -0.0236 0.9260
vn -0.6156 0.1026 0.7813
vn -0.7014 0.5832 -0.4097
vn -0.4955 0.0786 -0.8651
vn -0.8668 0.0473 -0.4964
vn -0.9272 -0.0629 -0.3693
vn -0.9037 -0.2907 -0.3143
vn -0.6627 -0.2999 0.6863
vn -0.8278 0.2286 0.5124
vn -0.2283 -0.8973 -0.3778
vn -0.0628 -0.9499 0.3061
vn -0.7093 -0.6305 -0.3152
vn -0.3630 -0.9155 -0.1736
vn -0.4022 -0.9068 -0.1262
vn -0.3788 -0.9075 -0.1815
vn -0.3392 -0.7888 0.5127
vn 0.1334 -0.9030 0.4083
vn -0.4877 -0.3618 -0.7945
vn -0.4258 -0.8910 -0.1576
vn -0.6832 -0.6988 -0.2120
vn -0.1894 -0.7893 -0.5841
vn -0.3067 -0.7470 -0.5898
vn 0.2043 -0.9271 -0.3143
vn 0.0157 -0.9736 -0.2277
vn 0.2997 -0.8045 -0.5127
vn 0.2047 -0.5592 -0.8033
vn 0.5279 -0.7643 -0.3703
vn 0.4878 -0.7239 -0.4878
vn 0.4029 -0.9085 -0.1106
vn 0.3616 -0.9040 -0.2280
vn -0.6143 -0.7089 0.3465
vn -0.0158 -0.9316 0.3632
vn 0.0946 -0.9774 -0.1892
vn 0.1570 -0.9815 0.1099
vn 0.0866 -0.9451 0.3151
vn 0.4019 -0.5594 0.7249
vn 0.6082 -0.6793 -0.4108
vn 0.1729 -0.5733 -0.8009
vn -0.1104 0.0157 -0.9938
vn 0.4082 0.1806 -0.8949
vn 0.2282 0.3384 -0.9129
vn 0.9307 -0.0473 -0.3628
vn 0.0471 -0.0628 -0.9969
vn -0.3083 0.2529 -0.9170
vn -0.5292 0.4107 -0.7425
vn 0.2212 0.9636 -0.1501
vn 0.5198 -0.6458 -0.5592
vn -0.2443 -0.3232 -0.9142
vn -0.1967 -0.2911 -0.9363
vn 0.3540 -0.2910 -0.8888
vn -0.7544 -0.4400 -0.4872
vn -0.1886 -0.3457 -0.9192
vn -0.1257 0.0707 -0.9896
vn -0.0471 0.1413 -0.9889
vn 0.6766 0.4405 -0.5901
vn 0.2920 0.9548 -0.0552
vn -0.0946 0.9774 -0.1892
vn 0.6694 0.3938 -0.6300
vn 0.1186 0.3400 -0.9329
vn -0.2678 0.8351 -0.4805
vn -0.2513 0.2513 -0.9347
vn -0.2839 0.2603 -0.9228
vn 0.2752 -0.0630 -0.9593
vn 0.0079 0.0158 -0.9998
vn -0.2993 0.3229 -0.8979
vn -0.7603 -0.0940 -0.6427
vn -0.9431 0.0393 -0.3301
vn -0.9530 -0.1260 -0.2757
vn -0.1180 0.3538 -0.9278
vn -0.0474 0.9875 0.1501
vn 0.1265 0.9570 0.2610
vn 0.1728 0.2278 -0.9583
vn 0.5573 0.2198 -0.8007
vn 0.8513 0.2838 -0.4414
vn 0.4802 0.3149 -0.8187
vn 0.9678 0.2518 -0.0079
vn -0.4402 -0.3144 0.8411
vn 0.0552 -0.3393 0.9391
vn 0.1738 -0.5055 0.8451
vn -0.6003 -0.7347 0.3160
vn -0.9169 -0.2213 0.3320
vn -0.8497 -0.0157 0.5271
vn -0.7557 -0.1496 0.6376
vn -0.5373 0.1897 0.8218
vn -0.2524 0.2366 0.9383
vn 0.0869 0.0316 0.9957
vn 0.1886 0.7856 0.5892
vn -0.1262 -0.6312 0.7653
vn -0.0709 -0.6854 0.7247
vn 0.3064 0.3221 0.8957
vn -0.1339 -0.1103 0.9848
vn 0.4025 -0.6313 0.6629
vn 0.4959 0.1338 0.8580
vn 0.3786 -0.2998 0.8757
vn -0.4331 -0.2205 0.8740
vn 0.2040 0.1098 0.9728
vn 0.0944 0.2359 0.9672
vn 0.3627 0.4967 0.7885
vn 0.3642 0.4989 0.7864
vn 0.3614 0.5021 0.7857
vn -0.0079 0.4566 0.8896
vn 0.4019 0.6069 0.6857
vn 0.2529 0.3319 0.9088
vn 0.2052 -0.0158 0.9786
vn 0.0706 0.9654 0.2512
vn 0.3613 0.5026 0.7854
vn -0.3072 0.5672 0.7641
vn 0.5533 0.5770 0.6007
vn 0.2212 0.8691 0.4425
vn -0.6843 0.2910 0.6686
vn -0.6643 0.3715 0.6486
vn -0.8680 0.3471 0.3551
vn -0.4570 0.7484 0.4806
vn -0.7550 0.6527 0.0629
vn -0.0157 0.9194 0.3929
vn -0.7672 0.0316 0.6406
s 1
f 1/1/1 2/2/1 3/3/1
f 1/1/2 4/4/2 2/2/2
f 3/3/3 2/2/3 5/5/3
f 3/3/4 5/5/4 6/6/4
f 2/2/5 7/7/5 5/5/5
f 6/6/6 5/5/6 8/8/6
f 9/9/7 3/3/7 6/6/7
f 10/10/8 6/6/8 8/8/8
f 9/9/9 6/6/9 10/10/9
f 4/4/10 7/7/10 2/2/10
f 4/4/11 11/11/11 7/7/11
f 7/7/12 11/11/12 12/12/12
f 11/11/13 13/13/13 12/12/13
f 12/12/14 14/14/14 15/15/14
f 12/12/15 13/13/15 14/14/15
f 14/14/16 16/16/16 17/17/16
f 18/18/17 14/14/17 17/17/17
f 15/15/18 14/14/18 18/18/18
f 7/7/19 15/15/19 5/5/19
f 7/7/20 12/12/20 15/15/20
f 15/15/21 18/18/21 19/19/21
f 5/5/22 15/15/22 19/19/22
f 5/5/23 19/19/23 8/8/23
f 8/8/24 19/19/24 20/20/24
f 19/19/25 18/18/25 20/20/25
f 20/20/26 18/18/26 21/21/26
f 20/20/27 21/21/27 22/22/27
f 18/18/28 17/17/28 23/23/28
f 18/18/29 23/23/29 21/21/29
f 21/21/30 23/23/30 24/24/30
f 25/25/31 21/21/31 24/24/31
f 22/22/32 21/21/32 25/25/32
f 10/10/33 8/8/33 26/26/33
f 8/8/34 20/20/34 26/26/34
f 26/26/35 20/20/35 27/27/35
f 26/26/36 27/27/36 28/28/36
f 27/27/37 20/20/37 22/22/37
f 28/28/38 27/27/38 22/22/38
f 28/28/39 22/22/39 29/29/39
f 29/29/40 30/30/40 31/31/40
f 32/32/41 29/29/41 31/31/41
f 22/22/42 24/24/42 29/29/42
f 29/29/43 24/24/43 30/30/43
f 30/30/44 33/33/44 34/34/44
f 22/22/45 25/25/45 24/24/45
f 35/35/46 36/36/47 33/33/48
f 24/24/49 33/33/49 30/30/49
f 24/24/50 35/35/50 33/33/50
f 34/34/51 33/33/51 37/37/51
f 33/33/52 36/36/52 37/37/52
f 37/37/53 36/36/53 38/38/53
f 37/37/54 38/38/54 39/39/54
f 34/34/55 37/37/55 39/39/55
f 34/34/56 39/39/56 31/31/56
f 31/31/57 39/39/57 40/40/57
f 32/32/58 41/41/58 42/42/58
f 32/32/59 31/31/59 41/41/59
f 30/30/60 34/34/60 31/31/60
f 31/31/61 40/40/61 41/41/61
f 42/42/62 41/41/62 43/43/62
f 43/43/63 41/41/63 44/44/63
f 41/41/64 40/40/64 44/44/64
f 43/43/65 44/44/65 45/45/65
f 45/45/66 44/44/66 46/46/66
f 45/45/67 46/46/67 47/47/67
f 47/47/68 46/46/68 48/48/68
f 47/47/69 48/48/69 49/49/69
f 47/47/70 49/49/70 50/50/70
f 44/44/71 40/40/71 46/46/71
f 40/40/72 51/51/72 52/52/72
f 46/46/73 52/52/73 53/53/73
f 40/40/71 52/52/74 46/46/71
f 46/46/75 53/53/75 48/48/75
f 53/53/76 54/54/76 55/55/76
f 53/53/77 52/52/77 56/56/77
f 52/52/78 57/57/78 56/56/78
f 56/56/79 57/57/79 58/58/79
f 53/53/80 56/56/80 54/54/80
f 54/54/81 56/56/81 59/59/81
f 56/56/82 58/58/83 59/59/84
f 54/54/85 59/59/85 60/60/85
f 54/54/86 60/60/86 55/55/86
f 55/55/87 60/60/87 61/61/87
f 50/50/88 49/49/88 62/62/89
f 49/49/90 63/63/90 62/62/90
f 62/62/91 63/63/91 64/64/91
f 62/62/92 64/64/92 50/50/92
f 50/50/93 64/64/93 65/65/93
f 49/49/94 48/48/94 63/63/94
f 48/48/95 53/53/95 55/55/95
f 63/63/96 48/48/96 55/55/96
f 63/63/97 55/55/97 64/64/97
f 64/64/98 55/55/98 66/66/98
f 65/65/99 64/64/99 66/66/99
f 65/65/100 66/66/100 67/67/100
f 66/66/101 55/55/101 67/67/101
f 67/67/102 68/68/102 69/69/102
f 55/55/103 61/61/103 67/67/103
f 67/67/104 61/61/104 68/68/104
f 68/68/105 61/61/105 70/70/105
f 70/70/106 61/61/106 71/71/106
f 68/68/107 70/70/107 72/72/107
f 69/69/108 68/68/108 72/72/108
f 61/61/109 60/60/109 71/71/109
f 59/59/110 73/73/110 60/60/110
f 60/60/111 73/73/111 71/71/111
f 73/73/112 74/74/112 71/71/112
f 71/71/113 74/74/113 75/75/113
f 71/71/114 75/75/114 76/76/114
f 75/75/115 77/77/115 76/76/115
f 75/75/116 78/78/116 77/77/116
f 75/75/117 79/79/117 78/78/117
f 77/77/118 78/78/118 11/11/118
f 77/77/119 11/11/119 4/4/119
f 1/1/120 76/76/120 4/4/120
f 76/76/121 77/77/121 4/4/121
f 72/72/122 70/70/122 80/80/122
f 80/80/123 70/70/123 81/81/123
f 70/70/124 71/71/124 76/76/124
f 70/70/125 76/76/125 1/1/125
f 81/81/126 70/70/126 1/1/126
f 81/81/127 1/1/127 3/3/127
f 11/11/128 78/78/128 13/13/128
f 78/78/129 79/79/129 13/13/129
f 79/79/130 82/82/130 16/16/130
f 79/79/131 83/83/131 82/82/131
f 82/82/132 84/84/132 85/85/132
f 13/13/133 16/16/133 14/14/133
f 13/13/134 79/79/134 16/16/134
f 16/16/135 82/82/135 86/86/135
f 82/82/136 85/85/136 86/86/136
f 16/16/137 86/86/137 17/17/137
f 79/79/138 75/75/138 74/74/138
f 73/73/139 87/87/139 74/74/139
f 74/74/140 87/87/140 83/83/140
f 79/79/141 74/74/141 83/83/141
f 73/73/142 59/59/84 58/58/83
f 73/73/143 58/58/143 87/87/143
f 58/58/144 57/57/144 87/87/144
f 87/87/145 57/57/145 88/88/145
f 87/87/146 88/88/146 89/89/146
f 88/88/147 57/57/147 52/52/147
f 88/88/148 52/52/148 90/90/148
f 89/89/149 88/88/149 90/90/149
f 83/83/150 87/87/150 82/82/150
f 82/82/151 87/87/151 89/89/151
f 82/82/152 89/89/152 84/84/152
f 89/89/153 90/90/153 84/84/153
f 84/84/154 90/90/154 91/91/154
f 90/90/155 38/38/155 91/91/155
f 90/90/156 52/52/156 51/51/156
f 90/90/157 51/51/157 38/38/157
f 38/38/158 51/51/158 40/40/158
f 38/38/159 40/40/159 39/39/159
f 91/91/160 38/38/160 36/36/160
f 17/17/161 86/86/161 23/23/161
f 86/86/162 85/85/162 23/23/162
f 85/85/163 84/84/163 36/36/163
f 84/84/164 91/91/164 36/36/164
f 23/23/165 85/85/165 35/35/165
f 85/85/166 36/36/47 35/35/46
f 24/24/167 23/23/167 35/35/167
f 67/67/168 69/69/168 65/65/168
f 69/69/169 92/92/169 65/65/169
f 69/69/170 72/72/170 92/92/170
f 72/72/171 80/80/171 93/93/171
f 72/72/172 93/93/172 92/92/172
f 92/92/173 93/93/173 94/94/173
f 92/92/174 94/94/174 95/95/174
f 95/95/175 94/94/175 96/96/175
f 65/65/176 95/95/176 50/50/176
f 65/65/177 92/92/177 95/95/177
f 50/50/178 95/95/178 97/97/178
f 81/81/179 98/98/179 80/80/179
f 80/80/180 98/98/180 93/93/180
f 98/98/181 99/99/181 94/94/181
f 93/93/182 98/98/182 94/94/182
f 81/81/183 3/3/183 98/98/183
f 98/98/184 3/3/184 99/99/184
f 99/99/185 3/3/185 9/9/185
f 99/99/186 9/9/186 100/100/186
f 94/94/187 99/99/187 100/100/187
f 94/94/188 100/100/188 96/96/188
f 100/100/189 101/101/190 96/96/191
f 100/100/192 9/9/192 101/101/192
f 9/9/193 10/10/193 101/101/193
f 101/101/194 10/10/194 26/26/194
f 101/101/195 26/26/195 28/28/195
f 28/28/196 29/29/196 32/32/196
f 96/96/191 101/101/190 102/102/197
f 101/101/198 28/28/198 32/32/198
f 101/101/199 32/32/199 102/102/199
f 50/50/200 97/97/200 47/47/200
f 97/97/201 102/102/201 47/47/201
f 95/95/202 96/96/202 102/102/202
f 97/97/203 95/95/203 102/102/203
f 42/42/204 102/102/204 32/32/204
f 47/47/205 102/102/205 45/45/205
f 102/102/206 42/42/206 43/43/206
f 45/45/207 102/102/207 43/43/207
