# Blender v2.79 (sub 0) OBJ File: ''
# www.blender.org
o Cube
v 0.641417 -0.483435 0.183201
v -0.591085 -0.526728 0.525445
v -0.343553 -0.526728 -0.646371
v 0.641416 9.349062 0.183202
v -0.591085 9.305769 0.525445
v -0.343553 9.305769 -0.646371
v 0.097980 4.435585 -3.899038
v 3.839840 4.435585 -1.180419
v 2.410576 4.435585 3.218401
v 0.097980 12.304432 0.035385
v -2.214616 4.435585 3.218400
v -3.643879 4.435585 -1.180419
vt 0.159540 0.005944
vt 0.181415 0.092354
vt 0.180677 0.067376
vt 0.181943 0.056005
vt 0.200893 0.076476
vt 0.181943 0.079356
vt 0.135268 0.035679
vt 0.178125 0.051084
vt 0.175000 0.080513
vt 0.146302 0.103125
vt 0.151321 0.050784
vt 0.140052 0.060159
vt 0.162677 0.094534
vt 0.140802 0.080944
vt 0.180677 0.122637
vt 0.034375 0.127753
vt 0.044738 0.063284
vt 0.045071 0.062128
vt 0.034321 0.038328
vt 0.003071 0.072912
vt -0.002051 0.025227
vt -0.012053 0.030402
vt 0.034375 0.057034
vt 0.019271 0.003125
vt 0.027965 0.060159
vt 0.006697 0.022659
vt 0.034295 0.025000
vt 0.035068 0.071372
vt 0.031943 0.057618
vt 0.154018 0.078125
vt 0.182143 0.078125
vt 0.157571 0.103125
vt 0.068670 0.082078
vt 0.016072 0.033215
vn 0.0373 -0.9993 0.0079
vn 0.6442 0.0000 -0.7649
vn 0.2676 0.0000 0.9635
vn -0.9784 -0.0000 -0.2067
vn -0.0373 0.9993 -0.0079
vn 0.5449 0.3750 -0.7500
vn 0.8817 0.3750 0.2865
vn -0.0000 0.3750 0.9270
vn -0.8817 0.3750 0.2865
vn -0.5449 0.3750 -0.7500
vn 0.0000 -1.0000 0.0000
s off
f 2/1/1 3/2/1 1/3/1
f 1/4/2 6/5/2 4/6/2
f 1/7/3 5/8/3 2/9/3
f 5/10/4 3/11/4 2/12/4
f 6/13/5 5/14/5 4/15/5
f 7/16/6 10/17/6 8/18/6
f 8/19/7 10/20/7 9/21/7
f 9/21/8 10/20/8 11/22/8
f 11/23/9 10/24/9 12/25/9
f 12/25/10 10/24/10 7/26/10
f 8/27/11 9/28/11 11/29/11
f 1/4/2 3/30/2 6/5/2
f 1/7/3 4/31/3 5/8/3
f 5/10/4 6/32/4 3/11/4
f 12/33/11 7/34/11 11/29/11
f 7/34/11 8/27/11 11/29/11
