# Blender v2.79 (sub 0) OBJ File: ''
# www.blender.org
o Cylinder_Cylinder.001
v 0.000000 -1.000000 -1.000000
v -0.000000 13.094164 -0.095082
v 0.951057 -1.000000 -0.309017
v 0.090428 13.094164 -0.029382
v 0.587785 -1.000000 0.809017
v 0.055888 13.094164 0.076923
v -0.587785 -1.000000 0.809017
v -0.055888 13.094164 0.076923
v -0.951056 -1.000000 -0.309017
v -0.090428 13.094164 -0.029382
v 0.511175 4.752621 -3.741537
v 0.000000 1.462853 -4.486722
v 3.885616 1.462853 2.243362
v -3.885616 1.462853 2.243361
v 0.000000 10.436298 0.000000
v 2.984678 4.752621 2.313459
v -3.495854 4.752621 1.428077
v 0.000000 12.305209 0.000000
v 0.098823 8.820485 -2.690474
v 2.280607 8.820485 1.430820
v -2.379430 8.820485 1.259654
v 0.000000 14.205061 0.000000
vt 0.189926 0.085815
vt 0.195118 0.067368
vt 0.183676 0.080006
vt 0.202874 0.089701
vt 0.163275 0.038005
vt 0.209467 0.092368
vt 0.225000 0.082173
vt 0.159861 0.072798
vt 0.061245 0.151405
vt 0.063999 0.146132
vt 0.051499 0.128553
vt 0.189926 0.042423
vt 0.174924 0.061948
vt 0.230456 0.088646
vt 0.184861 0.082224
vt 0.214664 0.129352
vt 0.182706 0.075993
vt 0.202842 0.111317
vt 0.040453 0.180971
vt 0.081078 0.182347
vt 0.090625 0.175409
vt 0.034416 0.200909
vt 0.065666 0.175000
vt 0.061493 0.180307
vt 0.050699 0.057993
vt 0.048811 0.187500
vt 0.057885 0.239243
vt 0.069765 0.106250
vt 0.082265 0.198525
vt 0.057885 0.177107
vt 0.041324 0.175000
vt 0.053824 0.066680
vt 0.043750 0.056689
vt 0.058368 0.123618
vt 0.048993 0.137265
vt 0.003824 0.113572
vt 0.050000 0.181638
vt 0.036245 0.144805
vt 0.064370 0.146596
vt 0.020868 0.128599
vt 0.070694 0.129868
vt 0.036319 0.125909
vt 0.044525 0.101743
vt 0.057025 0.125313
vt 0.089444 0.121363
vt 0.031291 0.146967
vt 0.056326 0.150909
vt 0.106326 0.157028
vt 0.069449 0.231617
vt 0.030819 0.118515
vt 0.071592 0.103492
vt 0.026015 0.202108
vt 0.082775 0.109375
vt 0.051525 0.088592
vt 0.236260 0.107677
vt 0.166408 0.095493
vt 0.082241 0.164255
vt 0.079116 0.163555
vt 0.172853 0.067368
vt 0.181736 0.061932
vt 0.251456 0.099765
vt 0.227164 0.155782
vn 0.5870 0.0519 -0.8079
vn 0.9498 0.0519 0.3086
vn -0.0000 0.0519 0.9987
vn 0.0000 1.0000 -0.0000
vn -0.9498 0.0519 0.3086
vn -0.5870 0.0519 -0.8079
vn 0.0000 -1.0000 -0.0000
vn 0.8981 0.2425 -0.3669
vn 0.8402 0.2425 -0.4851
vn -0.1313 0.2425 0.9612
vn -0.0000 0.2425 0.9701
vn -0.8402 0.2425 -0.4851
vn -0.7668 0.2425 -0.5943
vn 0.8574 0.2425 -0.4539
vn -0.0356 0.2425 0.9695
vn -0.8218 0.2425 -0.5156
s off
f 2/1/1 3/2/1 1/3/1
f 3/2/2 6/4/2 5/5/2
f 6/6/3 7/7/3 5/8/3
f 2/9/4 8/10/4 6/11/4
f 7/12/5 10/13/5 9/14/5
f 10/13/6 1/15/6 9/14/6
f 3/16/7 7/17/7 9/18/7
f 11/19/7 16/20/7 17/21/7
f 11/22/8 18/23/8 16/24/8
f 12/25/9 15/26/9 13/27/9
f 16/28/10 18/29/10 17/30/10
f 13/31/11 15/32/11 14/33/11
f 14/34/12 15/35/12 12/36/12
f 12/37/7 13/38/7 14/39/7
f 17/40/13 18/41/13 11/42/13
f 19/43/14 22/44/14 20/45/14
f 20/46/15 22/47/15 21/48/15
f 21/49/16 22/50/16 19/51/16
f 19/52/7 20/53/7 21/54/7
f 2/1/1 4/55/1 3/2/1
f 3/2/2 4/55/2 6/4/2
f 6/6/3 8/56/3 7/7/3
f 6/11/4 4/57/4 2/9/4
f 2/9/4 10/58/4 8/10/4
f 7/12/5 8/59/5 10/13/5
f 10/13/6 2/60/6 1/15/6
f 9/18/7 1/61/7 3/16/7
f 3/16/7 5/62/7 7/17/7
