# Blender v2.79 (sub 0) OBJ File: ''
# www.blender.org
o SM_Tree_Vines_04
v 0.100494 2.244903 0.146944
v 0.109242 1.545186 0.122812
v 0.076943 2.244826 0.115844
v 0.132701 1.545180 0.153912
v 0.069468 -0.001708 0.169927
v 0.046414 -0.001708 0.139440
v 0.076899 -0.001708 0.116386
v 0.099956 -0.001708 0.146872
v 0.101661 1.545185 0.177437
v 0.069362 2.244837 0.170460
v 0.078072 1.545193 0.146329
v 0.045878 2.244764 0.139363
v 0.145045 4.663907 0.102511
v 0.136843 4.663908 0.106580
v 0.142981 4.663908 0.108646
v 0.138911 4.663907 0.100445
v 0.045870 3.399285 0.139428
v 0.023241 3.944734 0.078593
v 0.077024 3.399208 0.115859
v 0.054096 3.954985 0.055485
v 0.077602 3.953988 0.086643
v 0.100482 3.399450 0.147021
v 0.046507 3.943943 0.109818
v 0.069417 3.399512 0.170464
v 0.100494 0.903565 0.146944
v 0.076940 0.903649 0.115844
v 0.045878 0.903717 0.139363
v 0.069359 0.903638 0.170460
v -0.060360 2.022620 0.176147
v -0.084709 1.392276 0.184512
v -0.069812 2.022535 0.214104
v -0.075208 1.392269 0.146737
v -0.032324 -0.001708 0.222996
v -0.060140 -0.001708 0.176647
v -0.023057 -0.001708 0.185913
v -0.069406 -0.001708 0.213737
v -0.022547 2.022841 0.185719
v -0.046825 1.392283 0.194024
v -0.037415 1.392275 0.156130
v -0.031994 2.022761 0.223430
v -0.150020 3.850775 0.164022
v -0.137400 3.849255 0.165981
v -0.142956 3.849825 0.158646
v -0.144852 3.850156 0.171354
v -0.166140 3.207021 0.253817
v -0.163781 2.705699 0.190421
v -0.129490 3.193518 0.263157
v -0.126042 2.701846 0.200006
v -0.156712 3.206109 0.215947
v -0.154258 2.705968 0.152734
v -0.119820 3.192837 0.225443
v -0.116626 2.702089 0.162063
v -0.060421 0.814133 0.176184
v -0.069852 0.814226 0.214049
v -0.032047 0.814301 0.223462
v -0.022572 0.814214 0.185667
v 0.119427 1.009467 0.346331
v 0.092694 1.175565 0.363994
v 0.155486 1.009809 0.360570
v 0.060991 1.175001 0.386793
v 0.123989 -0.001708 0.371585
v 0.074013 -0.001708 0.392179
v 0.088692 -0.001708 0.356889
v 0.109302 -0.001708 0.406866
v 0.083553 1.175277 0.418213
v 0.105186 1.009303 0.382776
v 0.115153 1.175830 0.395920
v 0.141569 1.009777 0.396680
v 0.117717 2.244137 0.483887
v 0.123452 2.235418 0.495145
v 0.126891 2.238509 0.485469
v 0.114265 2.241044 0.493776
v 0.002970 1.670541 0.309559
v -0.016878 2.024037 0.387462
v -0.038712 2.035090 0.357059
v 0.026156 1.667898 0.340858
v -0.007843 2.034411 0.333960
v 0.034123 1.670899 0.286392
v 0.014921 2.023196 0.364187
v 0.057417 1.668242 0.317336
v 0.088438 0.590425 0.356408
v 0.124488 0.590295 0.371375
v 0.073511 0.590526 0.392382
v 0.109461 0.590408 0.407388
v -0.017180 1.175565 -0.367918
v -0.041788 1.009467 -0.347400
v 0.011794 1.175001 -0.394107
v -0.079207 1.009809 -0.357535
v -0.001745 -0.001708 -0.398014
v -0.012419 -0.001708 -0.361309
v -0.038451 -0.001708 -0.408680
v -0.049125 -0.001708 -0.371983
v -0.069389 1.009777 -0.394970
v -0.043050 1.175830 -0.397154
v -0.031684 1.009303 -0.385195
v -0.014121 1.175277 -0.422829
v -0.062333 2.235419 -0.494838
v -0.055383 2.244137 -0.484291
v -0.053044 2.241043 -0.494509
v -0.064675 2.238509 -0.484839
v 0.114186 2.035090 -0.375647
v 0.078041 1.670541 -0.323806
v 0.089100 2.024037 -0.403429
v 0.051515 1.667899 -0.352329
v 0.086073 2.034411 -0.349255
v 0.049660 1.670899 -0.297313
v 0.060091 2.023196 -0.376760
v 0.023068 1.668242 -0.325477
v -0.049596 0.590295 -0.371719
v -0.012113 0.590425 -0.360858
v -0.001270 0.590526 -0.398271
v -0.038666 0.590408 -0.409181
v 0.126739 1.009578 -0.288608
v 0.140682 1.466814 -0.267047
v 0.165669 1.009569 -0.288533
v 0.101662 1.466695 -0.267012
v 0.140302 -0.001708 -0.228440
v 0.102080 -0.001708 -0.266662
v 0.140302 -0.001708 -0.266662
v 0.102080 -0.001708 -0.228440
v 0.101695 1.466602 -0.228060
v 0.126672 1.009588 -0.249535
v 0.140652 1.466711 -0.228023
v 0.165733 1.009577 -0.249612
v 0.137699 3.048754 -0.325698
v 0.124942 3.049244 -0.324524
v 0.131968 3.048970 -0.318543
v 0.130849 3.049092 -0.331329
v 0.101756 2.220807 -0.267092
v 0.039547 2.577464 -0.246690
v 0.039702 2.584007 -0.285159
v 0.101772 2.220929 -0.227986
v 0.078745 2.583331 -0.285194
v 0.140757 2.221181 -0.266967
v 0.078452 2.577058 -0.246352
v 0.140706 2.221269 -0.228090
v 0.101659 0.590425 -0.267009
v 0.140681 0.590295 -0.267047
v 0.101695 0.590526 -0.228060
v 0.140648 0.590408 -0.228019
vt 0.068115 0.335938
vt 0.068115 0.335938
vt 0.068115 0.335938
vt 0.068115 0.335938
vt 0.068115 0.335938
vt 0.068115 0.335938
vt 0.068115 0.335938
vt 0.068115 0.335938
vt 0.068115 0.335938
vt 0.068115 0.335938
vt 0.068115 0.335938
vt 0.068115 0.335938
vt 0.068115 0.335938
vt 0.068115 0.335938
vt 0.068115 0.335938
vt 0.068115 0.335938
vt 0.068115 0.335938
vt 0.068115 0.335938
vt 0.068115 0.335938
vt 0.068115 0.335938
vt 0.068115 0.335938
vt 0.068115 0.335938
vt 0.068115 0.335938
vt 0.068115 0.335938
vt 0.068115 0.335938
vt 0.068115 0.335938
vt 0.068115 0.335938
vt 0.068115 0.335938
vt 0.068115 0.335938
vt 0.068115 0.335938
vt 0.068115 0.335938
vt 0.068115 0.335938
vt 0.068115 0.335938
vt 0.068115 0.335938
vt 0.068115 0.335938
vt 0.068115 0.335938
vt 0.068115 0.335938
vt 0.068115 0.335938
vt 0.068115 0.335938
vt 0.068115 0.335938
vt 0.068115 0.335938
vt 0.068115 0.335938
vt 0.068115 0.335938
vt 0.068115 0.335938
vt 0.068115 0.335938
vt 0.068115 0.335938
vt 0.068115 0.335938
vt 0.068115 0.335938
vt 0.068115 0.335938
vt 0.068115 0.335938
vt 0.068115 0.335938
vt 0.068115 0.335938
vt 0.068115 0.335938
vt 0.068115 0.335938
vt 0.068115 0.335938
vt 0.068115 0.335938
vt 0.068115 0.335938
vt 0.068115 0.335938
vt 0.068115 0.335938
vt 0.068115 0.335938
vt 0.068115 0.335938
vt 0.068115 0.335938
vt 0.068115 0.335938
vt 0.068115 0.335938
vt 0.068115 0.335938
vt 0.068115 0.335938
vt 0.068115 0.335938
vt 0.068115 0.335938
vt 0.068115 0.335938
vt 0.068115 0.335938
vt 0.068115 0.335938
vt 0.068115 0.335938
vt 0.068115 0.335938
vt 0.068115 0.335938
vt 0.068115 0.335938
vt 0.068115 0.335938
vt 0.068115 0.335938
vt 0.068115 0.335938
vt 0.068115 0.335938
vt 0.068115 0.335938
vt 0.068115 0.335938
vt 0.068115 0.335938
vt 0.068115 0.335938
vt 0.068115 0.335938
vt 0.068115 0.335938
vt 0.068115 0.335938
vt 0.068115 0.335938
vt 0.068115 0.335938
vt 0.068115 0.335938
vt 0.068115 0.335938
vt 0.068115 0.335938
vt 0.068115 0.335938
vt 0.068115 0.335938
vt 0.068115 0.335938
vt 0.068115 0.335938
vt 0.068115 0.335938
vt 0.068115 0.335938
vt 0.068115 0.335938
vt 0.068115 0.335938
vt 0.068115 0.335938
vt 0.068115 0.335938
vt 0.068115 0.335938
vt 0.068115 0.335938
vt 0.068115 0.335938
vt 0.068115 0.335938
vt 0.068115 0.335938
vt 0.068115 0.335938
vt 0.068115 0.335938
vt 0.068115 0.335938
vt 0.068115 0.335938
vt 0.068115 0.335938
vt 0.068115 0.335938
vt 0.068115 0.335938
vt 0.068115 0.335938
vt 0.068115 0.335938
vt 0.068115 0.335938
vt 0.068115 0.335938
vt 0.068115 0.335938
vt 0.068115 0.335938
vt 0.068115 0.335938
vt 0.068115 0.335938
vt 0.068115 0.335938
vt 0.068115 0.335938
vt 0.068115 0.335938
vt 0.068115 0.335938
vt 0.068115 0.335938
vt 0.068115 0.335938
vt 0.068115 0.335938
vt 0.068115 0.335938
vt 0.068115 0.335938
vt 0.068115 0.335938
vt 0.068115 0.335938
vt 0.068115 0.335938
vt 0.068115 0.335938
vt 0.068115 0.335938
vt 0.068115 0.335938
vt 0.068115 0.335938
vt 0.068115 0.335938
vt 0.068115 0.335938
vt 0.068115 0.335938
vn 0.7949 0.0315 -0.6060
vn 0.7948 0.0315 -0.6060
vn 0.0000 -1.0000 0.0000
vn -0.7949 -0.0315 0.6059
vn -0.7948 -0.0315 0.6060
vn -0.7949 -0.0315 0.6060
vn 0.0000 1.0000 -0.0001
vn -0.0002 1.0000 0.0001
vn 0.6058 0.0393 0.7946
vn -0.6058 -0.0393 -0.7947
vn -0.5836 -0.1104 -0.8045
vn -0.5837 -0.1104 -0.8045
vn 0.7987 -0.0316 -0.6010
vn 0.7986 -0.0317 -0.6010
vn 0.7986 -0.0316 -0.6010
vn 0.5836 0.1104 0.8045
vn -0.7986 0.0316 0.6010
vn 0.8656 -0.0708 -0.4957
vn 0.5053 -0.0631 0.8606
vn 0.5053 -0.0632 0.8606
vn -0.8651 0.1180 0.4876
vn -0.8651 0.1179 0.4876
vn -0.5120 0.1181 -0.8508
vn -0.5121 0.1182 -0.8508
vn -0.5120 0.1182 -0.8508
vn 0.7949 -0.0315 -0.6060
vn 0.7948 -0.0315 -0.6060
vn -0.6058 0.0393 -0.7946
vn -0.6058 0.0393 -0.7947
vn -0.7949 0.0315 0.6060
vn -0.7948 0.0315 0.6060
vn 0.6058 -0.0393 0.7947
vn 0.6058 -0.0393 0.7946
vn -0.6063 0.0000 -0.7952
vn -0.6063 0.0000 -0.7953
vn 0.7953 0.0000 -0.6063
vn 0.7952 0.0000 -0.6063
vn 0.6063 -0.0000 0.7953
vn 0.6063 0.0000 0.7952
vn -0.7953 -0.0000 0.6063
vn -0.7952 -0.0000 0.6063
vn -0.9692 0.0315 -0.2442
vn -0.9692 0.0315 -0.2443
vn -0.9692 0.0316 -0.2443
vn 0.9692 -0.0315 0.2443
vn 0.1182 0.9930 -0.0079
vn 0.1181 0.9930 -0.0079
vn 0.2442 0.0394 -0.9689
vn -0.2442 -0.0394 0.9689
vn -0.2441 -0.0394 0.9689
vn -0.2684 -0.1263 0.9550
vn -0.2683 -0.1263 0.9550
vn -0.9694 0.0237 -0.2443
vn 0.2683 0.1263 -0.9550
vn 0.2684 0.1263 -0.9550
vn 0.9694 -0.0237 0.2443
vn 0.9694 -0.0236 0.2443
vn -0.9352 -0.0157 -0.3536
vn -0.9352 -0.0157 -0.3537
vn 0.3455 -0.0864 -0.9344
vn 0.9272 0.0629 0.3693
vn -0.3298 0.1335 0.9346
vn -0.3299 0.1335 0.9345
vn -0.3298 0.1335 0.9345
vn -0.9689 -0.0394 -0.2442
vn -0.2442 0.0394 0.9689
vn 0.9689 0.0394 0.2442
vn 0.2442 -0.0394 -0.9689
vn -0.2444 -0.0000 0.9697
vn -0.9594 -0.1416 -0.2438
vn -0.9595 -0.1415 -0.2438
vn 0.2444 0.0000 -0.9697
vn 0.2443 -0.0000 -0.9697
vn 0.2445 0.0000 -0.9697
vn 0.9613 0.1418 0.2364
vn -0.9697 -0.0000 -0.2444
vn -0.9697 -0.0000 -0.2443
vn -0.2443 -0.0000 0.9697
vn 0.9697 -0.0000 0.2443
vn 0.9697 -0.0000 0.2444
vn -0.1255 0.0863 -0.9883
vn 0.1255 -0.0863 0.9883
vn 0.4330 0.8030 0.4094
vn 0.4330 0.8031 0.4094
vn 0.9586 0.2593 -0.1178
vn 0.9586 0.2593 -0.1179
vn -0.9586 -0.2593 0.1179
vn -0.9586 -0.2593 0.1178
vn -0.8120 -0.1655 0.5597
vn -0.8120 -0.1656 0.5597
vn -0.5970 0.0393 -0.8013
vn 0.8046 0.1735 -0.5679
vn 0.8046 0.1735 -0.5680
vn 0.5972 -0.0314 0.8015
vn -0.2677 0.6613 -0.7007
vn 0.8594 -0.1734 -0.4809
vn 0.8594 -0.1735 -0.4810
vn 0.3081 -0.5846 0.7505
vn -0.8271 0.2914 0.4805
vn -0.8271 0.2915 0.4805
vn 0.3764 -0.0470 -0.9253
vn 0.3764 -0.0471 -0.9253
vn -0.9272 0.0629 -0.3693
vn -0.3696 0.0472 0.9280
vn 0.9272 -0.0629 0.3693
vn -0.8084 -0.0000 0.5886
vn -0.5752 -0.1891 -0.7959
vn -0.5752 -0.1891 -0.7958
vn 0.8084 0.0000 -0.5886
vn 0.5744 0.1967 0.7946
vn 0.5743 0.1967 0.7946
vn 0.3863 0.0000 -0.9224
vn -0.9224 -0.0000 -0.3863
vn -0.3863 0.0000 0.9224
vn 0.9224 0.0000 0.3863
vn 0.2361 0.0866 0.9679
vn -0.2360 -0.0866 -0.9679
vn -0.2361 -0.0866 -0.9679
vn -0.2361 -0.0865 -0.9679
vn -0.2360 -0.0865 -0.9679
vn -0.4739 0.8057 -0.3554
vn -0.4740 0.8056 -0.3554
vn -0.9381 0.2602 0.2286
vn 0.9398 -0.2606 -0.2211
vn 0.7466 -0.1650 -0.6445
vn 0.7466 -0.1650 -0.6444
vn 0.6826 0.0393 0.7297
vn 0.6826 0.0392 0.7297
vn -0.7383 0.1728 0.6519
vn -0.6786 -0.0316 -0.7338
vn -0.6786 -0.0315 -0.7338
vn 0.3473 0.6631 0.6631
vn -0.8010 -0.1728 0.5732
vn -0.8010 -0.1728 0.5733
vn -0.3876 -0.5854 -0.7120
vn -0.3877 -0.5854 -0.7120
vn -0.3876 -0.5855 -0.7120
vn 0.7678 0.2929 -0.5699
vn 0.7678 0.2928 -0.5699
vn -0.2682 -0.0473 0.9622
vn -0.2681 -0.0473 0.9622
vn 0.9614 0.0630 0.2679
vn 0.2681 0.0473 -0.9622
vn 0.2682 0.0473 -0.9622
vn -0.9614 -0.0630 -0.2679
vn 0.7378 -0.0000 -0.6750
vn 0.6621 -0.1892 0.7251
vn 0.6621 -0.1892 0.7252
vn -0.7378 -0.0000 0.6750
vn -0.6611 0.1967 -0.7241
vn -0.6611 0.1968 -0.7240
vn -0.6611 0.1968 -0.7241
vn -0.2758 -0.0000 0.9612
vn 0.9612 -0.0000 0.2758
vn 0.2830 0.0000 -0.9591
vn -0.9591 -0.0000 -0.2830
vn 0.0000 0.0472 -0.9989
vn 0.0001 0.0472 -0.9989
vn -0.0001 0.0472 -0.9989
vn -0.0002 -0.0471 0.9989
vn 0.0000 -0.0472 0.9989
vn 0.0393 0.9992 0.0078
vn 0.0393 0.9992 0.0079
vn 0.9985 0.0550 0.0000
vn 0.9985 0.0551 -0.0001
vn -0.9985 -0.0551 -0.0000
vn -0.9985 -0.0550 -0.0000
vn -0.9985 -0.0550 0.0001
vn -0.9847 -0.1733 -0.0158
vn -0.9847 -0.1733 -0.0157
vn 0.0000 -0.0472 -0.9989
vn 0.9847 0.1733 0.0157
vn 0.9847 0.1733 0.0158
vn 0.0000 0.0550 0.9985
vn 0.1184 -0.1105 -0.9868
vn 0.9876 -0.1027 0.1185
vn -0.1338 0.1731 0.9758
vn -0.9786 0.1736 -0.1105
vn -0.9786 0.1737 -0.1105
vn 0.0000 -0.0550 -0.9985
vn -0.9980 0.0629 -0.0000
vn 0.9980 -0.0629 -0.0000
vn 0.9980 -0.0628 0.0000
vn -1.0000 0.0000 0.0001
vn -1.0000 -0.0000 -0.0001
vn 0.0000 0.0000 -1.0000
vn 0.0001 0.0000 -1.0000
vn 1.0000 0.0000 -0.0000
vn 1.0000 0.0000 -0.0001
vn 0.0000 0.0000 1.0000
vn -0.0001 -0.0000 1.0000
vn -0.0000 -0.0002 -1.0000
vn 0.0000 -0.0001 -1.0000
vn -1.0000 0.0000 -0.0000
vn 0.0000 0.0001 1.0000
vn 1.0000 -0.0001 0.0000
s 1
f 1/1/1 2/2/2 3/3/1
f 2/2/2 1/1/1 4/4/1
f 5/5/3 6/6/3 7/7/3
f 5/5/3 7/7/3 8/8/3
f 9/9/4 10/10/5 11/11/6
f 12/12/6 11/11/6 10/10/5
f 13/13/7 14/14/7 15/15/7
f 14/14/7 13/13/7 16/16/8
f 10/10/9 9/9/9 1/1/9
f 1/1/9 9/9/9 4/4/9
f 11/11/10 3/3/10 2/2/10
f 3/3/10 11/11/10 12/12/10
f 17/17/11 18/18/11 19/19/11
f 19/19/11 18/18/11 20/20/12
f 21/21/13 19/19/14 20/20/15
f 19/19/14 21/21/13 22/22/15
f 23/23/16 22/22/16 21/21/16
f 22/22/16 23/23/16 24/24/16
f 24/24/17 23/23/17 17/17/17
f 18/18/17 17/17/17 23/23/17
f 15/15/18 21/21/18 13/13/18
f 20/20/18 13/13/18 21/21/18
f 14/14/19 21/21/20 15/15/20
f 21/21/20 14/14/19 23/23/20
f 23/23/21 16/16/22 18/18/21
f 16/16/22 23/23/21 14/14/22
f 13/13/23 20/20/24 16/16/23
f 18/18/25 16/16/23 20/20/24
f 4/4/26 25/25/27 2/2/26
f 26/26/27 2/2/26 25/25/27
f 2/2/28 26/26/29 11/11/29
f 27/27/29 11/11/29 26/26/29
f 28/28/30 11/11/30 27/27/31
f 11/11/30 28/28/30 9/9/31
f 9/9/32 25/25/32 4/4/33
f 25/25/32 9/9/32 28/28/32
f 12/12/34 19/19/35 3/3/35
f 19/19/35 12/12/34 17/17/34
f 22/22/36 1/1/36 19/19/36
f 3/3/37 19/19/36 1/1/36
f 24/24/38 1/1/38 22/22/39
f 1/1/38 24/24/38 10/10/39
f 10/10/40 17/17/41 12/12/40
f 17/17/41 10/10/40 24/24/41
f 25/25/37 7/7/36 26/26/36
f 7/7/36 25/25/37 8/8/37
f 6/6/35 26/26/35 7/7/35
f 26/26/35 6/6/35 27/27/35
f 5/5/41 28/28/40 6/6/41
f 27/27/40 6/6/41 28/28/40
f 28/28/38 5/5/38 25/25/39
f 25/25/39 5/5/38 8/8/38
f 29/29/42 30/30/43 31/31/43
f 30/30/43 29/29/42 32/32/44
f 33/33/3 34/34/3 35/35/3
f 34/34/3 33/33/3 36/36/3
f 37/37/45 38/38/45 39/39/45
f 38/38/45 37/37/45 40/40/45
f 41/41/46 42/42/46 43/43/46
f 42/42/46 41/41/46 44/44/47
f 32/32/48 29/29/48 39/39/48
f 29/29/48 37/37/48 39/39/48
f 31/31/49 38/38/49 40/40/49
f 38/38/49 31/31/49 30/30/50
f 45/45/51 46/46/52 47/47/52
f 47/47/52 46/46/52 48/48/52
f 49/49/53 46/46/53 45/45/53
f 46/46/53 49/49/53 50/50/53
f 50/50/54 51/51/55 52/52/55
f 51/51/55 50/50/54 49/49/54
f 51/51/56 48/48/57 52/52/56
f 47/47/57 48/48/57 51/51/56
f 49/49/58 41/41/59 43/43/58
f 45/45/58 41/41/59 49/49/58
f 49/49/60 42/42/60 51/51/60
f 42/42/60 49/49/60 43/43/60
f 51/51/61 44/44/61 47/47/61
f 44/44/61 51/51/61 42/42/61
f 41/41/62 45/45/63 44/44/62
f 47/47/64 44/44/62 45/45/63
f 53/53/65 30/30/65 32/32/65
f 30/30/65 53/53/65 54/54/65
f 30/30/66 54/54/66 38/38/66
f 38/38/66 54/54/66 55/55/66
f 56/56/67 38/38/67 55/55/67
f 38/38/67 56/56/67 39/39/67
f 53/53/68 39/39/68 56/56/68
f 39/39/68 53/53/68 32/32/68
f 46/46/69 31/31/69 48/48/69
f 48/48/69 31/31/69 40/40/69
f 29/29/70 46/46/70 50/50/71
f 46/46/70 29/29/70 31/31/71
f 29/29/72 52/52/73 37/37/74
f 52/52/73 29/29/72 50/50/72
f 37/37/75 48/48/75 40/40/75
f 48/48/75 37/37/75 52/52/75
f 53/53/76 36/36/77 54/54/76
f 36/36/77 53/53/76 34/34/77
f 54/54/69 33/33/78 55/55/69
f 33/33/78 54/54/69 36/36/69
f 56/56/79 33/33/79 35/35/80
f 33/33/79 56/56/79 55/55/79
f 34/34/73 53/53/73 35/35/72
f 35/35/72 53/53/73 56/56/73
f 57/57/81 58/58/81 59/59/81
f 58/58/81 57/57/81 60/60/81
f 61/61/3 62/62/3 63/63/3
f 62/62/3 61/61/3 64/64/3
f 65/65/82 66/66/82 67/67/82
f 66/66/82 68/68/82 67/67/82
f 69/69/83 70/70/84 71/71/83
f 70/70/84 69/69/83 72/72/83
f 67/67/85 68/68/86 58/58/86
f 59/59/86 58/58/86 68/68/86
f 60/60/87 66/66/87 65/65/88
f 66/66/87 60/60/87 57/57/87
f 73/73/89 74/74/90 75/75/90
f 74/74/90 73/73/89 76/76/89
f 73/73/91 77/77/91 78/78/91
f 77/77/91 73/73/91 75/75/91
f 79/79/92 78/78/92 77/77/92
f 78/78/92 79/79/92 80/80/93
f 80/80/94 79/79/94 76/76/94
f 74/74/94 76/76/94 79/79/94
f 71/71/95 77/77/95 69/69/95
f 75/75/95 69/69/95 77/77/95
f 70/70/96 79/79/97 71/71/97
f 71/71/97 79/79/97 77/77/97
f 72/72/98 79/79/98 70/70/98
f 79/79/98 72/72/98 74/74/98
f 69/69/99 74/74/100 72/72/100
f 74/74/100 69/69/99 75/75/100
f 81/81/101 57/57/101 82/82/102
f 57/57/101 59/59/102 82/82/102
f 81/81/103 66/66/103 57/57/103
f 66/66/103 81/81/103 83/83/103
f 66/66/104 84/84/104 68/68/104
f 84/84/104 66/66/104 83/83/104
f 68/68/105 82/82/105 59/59/105
f 82/82/105 68/68/105 84/84/105
f 60/60/106 76/76/106 73/73/106
f 65/65/106 76/76/106 60/60/106
f 60/60/107 78/78/108 58/58/107
f 78/78/108 60/60/107 73/73/107
f 80/80/109 58/58/109 78/78/109
f 58/58/109 80/80/109 67/67/109
f 67/67/110 80/80/111 65/65/110
f 76/76/110 65/65/110 80/80/111
f 63/63/112 82/82/112 61/61/112
f 82/82/112 63/63/112 81/81/112
f 81/81/113 62/62/113 83/83/113
f 62/62/113 81/81/113 63/63/113
f 83/83/114 62/62/114 84/84/114
f 84/84/114 62/62/114 64/64/114
f 84/84/115 64/64/115 82/82/115
f 61/61/115 82/82/115 64/64/115
f 85/85/116 86/86/116 87/87/116
f 86/86/116 85/85/116 88/88/116
f 89/89/3 90/90/3 91/91/3
f 90/90/3 92/92/3 91/91/3
f 93/93/117 94/94/118 95/95/119
f 95/95/119 94/94/118 96/96/120
f 97/97/121 98/98/122 99/99/121
f 98/98/122 97/97/121 100/100/121
f 93/93/123 85/85/123 94/94/123
f 85/85/123 93/93/123 88/88/123
f 87/87/124 95/95/124 96/96/124
f 95/95/124 87/87/124 86/86/124
f 101/101/125 102/102/126 103/103/126
f 104/104/126 103/103/126 102/102/126
f 105/105/127 102/102/127 101/101/128
f 102/102/127 105/105/127 106/106/128
f 106/106/129 107/107/129 108/108/129
f 107/107/129 106/106/129 105/105/129
f 108/108/130 107/107/130 104/104/130
f 104/104/130 107/107/130 103/103/131
f 105/105/132 98/98/132 100/100/132
f 101/101/132 98/98/132 105/105/132
f 105/105/133 100/100/134 107/107/134
f 107/107/134 100/100/134 97/97/134
f 107/107/135 99/99/136 103/103/136
f 99/99/136 107/107/135 97/97/137
f 103/103/138 98/98/139 101/101/138
f 98/98/139 103/103/138 99/99/139
f 88/88/140 109/109/140 86/86/141
f 86/86/141 109/109/140 110/110/141
f 86/86/142 110/110/142 95/95/142
f 111/111/142 95/95/142 110/110/142
f 112/112/143 95/95/143 111/111/144
f 95/95/143 112/112/143 93/93/144
f 93/93/145 109/109/145 88/88/145
f 109/109/145 93/93/145 112/112/145
f 102/102/146 87/87/146 104/104/146
f 96/96/146 104/104/146 87/87/146
f 106/106/147 87/87/148 102/102/148
f 87/87/148 106/106/147 85/85/148
f 108/108/149 85/85/149 106/106/149
f 85/85/149 108/108/149 94/94/149
f 94/94/150 108/108/151 96/96/152
f 96/96/152 108/108/151 104/104/152
f 109/109/153 90/90/153 110/110/153
f 90/90/153 109/109/153 92/92/153
f 110/110/154 89/89/154 111/111/154
f 89/89/154 110/110/154 90/90/154
f 91/91/155 112/112/155 89/89/155
f 89/89/155 112/112/155 111/111/155
f 91/91/156 109/109/156 112/112/156
f 109/109/156 91/91/156 92/92/156
f 113/113/157 114/114/157 115/115/158
f 114/114/157 113/113/157 116/116/159
f 117/117/3 118/118/3 119/119/3
f 118/118/3 117/117/3 120/120/3
f 121/121/160 122/122/161 123/123/161
f 122/122/161 124/124/161 123/123/161
f 125/125/162 126/126/162 127/127/162
f 126/126/162 125/125/162 128/128/163
f 123/123/164 124/124/164 114/114/165
f 115/115/164 114/114/165 124/124/164
f 116/116/166 122/122/167 121/121/166
f 122/122/167 116/116/166 113/113/168
f 129/129/169 130/130/170 131/131/169
f 130/130/170 129/129/169 132/132/169
f 129/129/171 133/133/171 134/134/171
f 133/133/171 129/129/171 131/131/171
f 135/135/172 134/134/172 133/133/173
f 134/134/172 135/135/172 136/136/173
f 136/136/174 135/135/174 132/132/174
f 130/130/174 132/132/174 135/135/174
f 125/125/175 133/133/175 128/128/175
f 131/131/175 128/128/175 133/133/175
f 127/127/176 133/133/176 125/125/176
f 133/133/176 127/127/176 135/135/176
f 126/126/177 135/135/177 127/127/177
f 135/135/177 126/126/177 130/130/177
f 131/131/178 126/126/178 128/128/179
f 130/130/178 126/126/178 131/131/178
f 137/137/180 113/113/180 138/138/180
f 113/113/180 115/115/180 138/138/180
f 137/137/181 122/122/181 113/113/181
f 122/122/181 137/137/181 139/139/181
f 122/122/174 140/140/174 124/124/174
f 140/140/174 122/122/174 139/139/174
f 124/124/182 138/138/182 115/115/182
f 138/138/182 124/124/182 140/140/183
f 129/129/184 121/121/184 132/132/185
f 121/121/184 129/129/184 116/116/185
f 116/116/186 129/129/186 114/114/187
f 114/114/187 129/129/186 134/134/186
f 136/136/188 114/114/188 134/134/188
f 114/114/188 136/136/188 123/123/189
f 132/132/190 123/123/190 136/136/190
f 123/123/190 132/132/190 121/121/191
f 118/118/192 138/138/186 119/119/193
f 138/138/186 118/118/192 137/137/186
f 137/137/194 120/120/194 139/139/194
f 120/120/194 137/137/194 118/118/194
f 139/139/190 120/120/190 140/140/190
f 140/140/190 120/120/190 117/117/195
f 140/140/189 117/117/196 138/138/188
f 119/119/196 138/138/188 117/117/196
