# Blender v2.79 (sub 0) OBJ File: ''
# www.blender.org
o SM_Rock_03
v -0.155776 0.113217 0.140395
v -0.130919 0.136705 -0.004427
v -0.238952 0.059708 -0.001948
v -0.204901 -0.106987 0.057679
v -0.236288 -0.053611 0.002838
v -0.107560 -0.116561 0.157436
v 0.057317 -0.079100 0.174969
v -0.070599 -0.143526 0.048049
v 0.052558 0.105259 0.176651
v 0.143451 0.131284 0.122683
v -0.141831 0.063470 -0.111094
v -0.199099 -0.045345 -0.081010
v -0.134057 -0.096425 -0.098747
v 0.201125 -0.058546 0.090157
v 0.164917 0.105025 0.136559
v 0.152626 -0.091650 -0.119511
v 0.076857 0.164417 -0.047210
v 0.015306 -0.067355 -0.193612
v 0.188087 -0.100946 0.009920
v 0.237117 0.090089 0.006793
v 0.011979 0.072534 -0.163496
v 0.171143 0.091205 -0.108849
v 0.217077 -0.083917 -0.027129
v 0.187621 0.024157 -0.123998
v 0.002933 0.016516 -0.207380
vt 0.438965 0.378906
vt 0.438965 0.378906
vt 0.438965 0.378906
vt 0.438965 0.378906
vt 0.438965 0.378906
vt 0.438965 0.378906
vt 0.438965 0.378906
vt 0.438965 0.378906
vt 0.438965 0.378906
vt 0.438965 0.378906
vt 0.438965 0.378906
vt 0.438965 0.378906
vt 0.438965 0.378906
vt 0.438965 0.378906
vt 0.438965 0.378906
vt 0.438965 0.378906
vt 0.438965 0.378906
vt 0.438965 0.378906
vt 0.438965 0.378906
vt 0.438965 0.378906
vt 0.438965 0.378906
vt 0.438965 0.378906
vt 0.438965 0.378906
vt 0.438965 0.378906
vt 0.438965 0.378906
vn -0.5832 0.8117 0.0315
vn -0.8664 -0.0014 0.4993
vn -0.8665 -0.0009 0.4992
vn -0.8677 0.0001 0.4970
vn -0.8643 -0.0000 0.5029
vn -0.7151 -0.1022 0.6915
vn -0.3977 -0.0158 0.9174
vn -0.3929 -0.0157 0.9194
vn -0.2528 -0.9558 0.1501
vn -0.0553 0.9329 0.3558
vn 0.1650 -0.9425 0.2906
vn -0.0474 0.9875 0.1501
vn -0.5516 0.7722 -0.3152
vn -0.9118 -0.0393 -0.4087
vn -0.6225 -0.7092 -0.3310
vn -0.2677 -0.9448 -0.1890
vn -0.7544 0.1886 -0.6287
vn -0.4024 -0.0158 0.9153
vn -0.6390 -0.6864 -0.3471
vn 0.5093 0.0079 0.8606
vn 0.5063 0.0079 0.8623
vn 0.5121 0.0079 0.8589
vn 0.2670 0.6117 0.7447
vn 0.5122 0.0079 0.8589
vn -0.0101 -0.9527 -0.3038
vn -0.0099 -0.9526 -0.3041
vn -0.0078 -0.9518 -0.3067
vn -0.1735 0.8990 -0.4022
vn -0.5221 -0.4034 -0.7515
vn 0.0236 0.9986 0.0472
vn 0.3537 -0.8488 0.3930
vn 0.7947 0.1416 0.5902
vn 0.7948 0.1416 0.5902
vn 0.6606 0.6921 0.2909
vn -0.0079 -0.9540 -0.2996
vn 0.3862 0.9223 -0.0158
vn -0.0943 0.7782 -0.6209
vn -0.0943 0.7782 -0.6210
vn 0.1885 -0.9428 0.2750
vn 0.3322 0.5141 -0.7908
vn 0.3321 0.5141 -0.7908
vn 0.5604 0.7657 -0.3157
vn 0.9760 -0.1417 0.1653
vn 0.7013 -0.6698 0.2442
vn 0.3381 -0.9279 -0.1573
vn 0.1735 -0.9777 -0.1183
vn 0.3317 -0.1896 0.9241
vn 0.8751 0.0552 0.4809
vn 0.8034 -0.2600 -0.5356
vn 0.8213 -0.0474 -0.5686
vn 0.4099 -0.1577 -0.8984
vn 0.4783 0.0000 -0.8782
vn 0.4646 -0.0787 -0.8820
vn 0.4722 0.0000 -0.8815
vn -0.5063 0.0000 -0.8623
vn -0.4713 -0.2121 -0.8561
vn -0.5121 0.0157 -0.8588
vn -0.5121 0.0158 -0.8588
vn -0.2830 0.6209 -0.7310
vn -0.5411 0.0549 -0.8391
vn 0.8678 -0.0000 -0.4970
vn 0.8263 0.3069 -0.4722
vn 0.9431 -0.0393 -0.3301
vn 0.3074 0.4256 -0.8511
vn 0.3073 0.4256 -0.8511
s 1
f 1/1/1 2/2/1 3/3/1
f 4/4/2 3/3/3 5/5/4
f 1/1/5 3/3/3 4/4/2
f 1/1/6 4/4/6 6/6/6
f 1/1/7 6/6/8 7/7/7
f 8/8/9 6/6/9 4/4/9
f 9/9/10 10/10/10 1/1/10
f 8/8/11 7/7/11 6/6/11
f 10/10/12 2/2/12 1/1/12
f 2/2/13 11/11/13 3/3/13
f 3/3/14 12/12/14 5/5/14
f 4/4/15 5/5/15 13/13/15
f 4/4/16 13/13/16 8/8/16
f 3/3/17 11/11/17 12/12/17
f 9/9/18 1/1/7 7/7/7
f 5/5/19 12/12/19 13/13/19
f 14/14/20 9/9/20 7/7/21
f 9/9/22 15/15/23 10/10/24
f 13/13/25 16/16/26 8/8/27
f 2/2/28 17/17/28 11/11/28
f 18/18/29 13/13/29 12/12/29
f 10/10/30 17/17/30 2/2/30
f 14/14/31 7/7/31 19/19/31
f 20/20/32 10/10/33 15/15/34
f 13/13/25 18/18/35 16/16/26
f 20/20/36 17/17/36 10/10/36
f 17/17/37 21/21/38 11/11/37
f 8/8/39 19/19/39 7/7/39
f 22/22/40 21/21/40 17/17/41
f 17/17/42 20/20/42 22/22/42
f 20/20/43 14/14/43 23/23/43
f 23/23/44 14/14/44 19/19/44
f 16/16/45 23/23/45 19/19/45
f 16/16/46 19/19/46 8/8/46
f 14/14/20 15/15/47 9/9/20
f 20/20/33 15/15/48 14/14/33
f 24/24/49 23/23/50 16/16/50
f 25/25/51 24/24/51 16/16/52
f 25/25/53 16/16/54 18/18/54
f 12/12/55 25/25/56 18/18/55
f 11/11/57 21/21/58 25/25/59
f 11/11/57 25/25/60 12/12/57
f 22/22/61 20/20/61 24/24/62
f 24/24/63 20/20/61 23/23/61
f 24/24/64 25/25/65 21/21/52
f 24/24/64 21/21/52 22/22/52
