# Blender v2.79 (sub 0) OBJ File: ''
# www.blender.org
o Cube_Cube.001
v -3.919043 -1.298307 3.919043
v -3.919043 0.665492 3.919043
v -3.919043 -1.298307 -3.919043
v -3.919043 0.665492 -3.919043
v 3.919043 -1.298307 3.919043
v 3.919043 0.665492 3.919043
v 3.919043 -1.298307 -3.919043
v 3.919043 0.665492 -3.919043
v -2.933516 9.732709 2.933516
v -2.933516 9.732709 -2.933516
v 2.933516 9.732709 -2.933516
v 2.933516 9.732709 2.933516
v -2.933516 15.572331 2.933516
v -2.933516 15.572331 -2.933516
v 2.933516 15.572331 -2.933516
v 2.933516 15.572331 2.933516
v -0.518631 19.588795 0.518631
v -0.518631 19.588795 -0.518631
v 0.518631 19.588795 -0.518631
v 0.518631 19.588795 0.518631
vn -1.0000 0.0000 0.0000
vn 0.0000 0.0000 -1.0000
vn 1.0000 0.0000 0.0000
vn 0.0000 0.0000 1.0000
vn 0.0000 -1.0000 0.0000
vn 0.9941 0.1081 0.0000
vn -0.9941 0.1081 0.0000
vn 0.0000 0.1081 0.9941
vn 0.0000 0.1081 -0.9941
vn 0.8570 0.5153 0.0000
vn 0.0000 1.0000 0.0000
vn -0.8570 0.5153 0.0000
vn 0.0000 0.5153 0.8570
vn 0.0000 0.5153 -0.8570
s off
f 2//1 3//1 1//1
f 4//2 7//2 3//2
f 8//3 5//3 7//3
f 6//4 1//4 5//4
f 7//5 1//5 3//5
f 8//6 12//6 6//6
f 12//4 13//4 9//4
f 2//7 10//7 4//7
f 6//8 9//8 2//8
f 4//9 11//9 8//9
f 15//10 20//10 16//10
f 10//2 15//2 11//2
f 11//3 16//3 12//3
f 9//1 14//1 10//1
f 18//11 20//11 19//11
f 13//12 18//12 14//12
f 16//13 17//13 13//13
f 14//14 19//14 15//14
f 2//1 4//1 3//1
f 4//2 8//2 7//2
f 8//3 6//3 5//3
f 6//4 2//4 1//4
f 7//5 5//5 1//5
f 8//6 11//6 12//6
f 12//4 16//4 13//4
f 2//7 9//7 10//7
f 6//8 12//8 9//8
f 4//9 10//9 11//9
f 15//10 19//10 20//10
f 10//2 14//2 15//2
f 11//3 15//3 16//3
f 9//1 13//1 14//1
f 18//11 17//11 20//11
f 13//12 17//12 18//12
f 16//13 20//13 17//13
f 14//14 18//14 19//14
