# Blender v2.79 (sub 0) OBJ File: ''
# www.blender.org
o Cube
v 0.259840 -0.244676 -0.374972
v 0.259840 -0.244676 0.177135
v -0.320757 -0.267211 0.164038
v 0.259840 4.137253 -0.374972
v 0.259839 4.137253 0.177135
v -0.320757 4.114717 0.164037
v 0.000000 1.105778 0.000000
v 0.723600 1.658563 0.525720
v -0.276385 1.658563 0.850640
v -0.894425 1.658563 0.000000
v -0.276385 1.658563 -0.850640
v 0.723600 1.658563 -0.525720
v 0.276385 4.120379 0.850640
v -0.723600 4.120379 0.525720
v -0.723600 4.120379 -0.525720
v 0.276385 4.120379 -0.850640
v 0.894425 4.120379 0.000000
v 0.000000 4.673164 0.000000
vt 0.260426 0.272602
vt 0.233265 0.303125
vt 0.263551 0.198019
vt 0.303125 0.178125
vt 0.235426 0.323263
vt 0.254176 0.320555
vt 0.242114 0.029283
vt 0.248025 0.157830
vt 0.257739 0.130863
vt 0.247741 0.770404
vt 0.241491 0.871489
vt 0.268750 0.707144
vt 0.273631 0.618336
vt 0.260241 0.577711
vt 0.262085 0.436029
vt 0.032306 0.104881
vt 0.102391 0.469018
vt 0.033687 0.705621
vt 0.068750 0.683856
vt 0.068062 0.689784
vt 0.071138 0.742279
vt 0.000000 0.008131
vt 0.019120 0.015625
vt 0.053854 0.469018
vt 0.083265 0.504046
vt 0.042573 0.246884
vt 0.086390 0.535914
vt 0.072635 0.422143
vt 0.057726 0.056518
vt 0.054244 0.103125
vt 0.060198 0.482259
vt 0.054275 0.681250
vt 0.061789 0.358401
vt 0.041370 0.442506
vt 0.028138 0.453394
vt 0.019900 0.196875
vt 0.072620 0.098755
vt 0.095239 0.411256
vt 0.078948 0.413421
vt 0.048575 0.547143
vt 0.067373 0.584013
vt 0.087868 0.659542
vt 0.096187 0.730567
vt 0.073578 0.476654
vt 0.057998 0.605677
vt 0.239515 0.315208
vt 0.262500 0.287083
vt 0.238649 0.037500
vn 1.0000 -0.0000 0.0000
vn -0.0226 0.0000 0.9997
vn -0.6804 0.0000 -0.7329
vn 0.0388 -0.9992 0.0000
vn -0.0388 0.9992 0.0000
vn 0.1876 -0.7947 0.5774
vn 0.6071 -0.7947 0.0000
vn -0.4911 -0.7947 0.3568
vn -0.4911 -0.7947 -0.3568
vn 0.1876 -0.7947 -0.5774
vn 0.9976 -0.0692 0.0000
vn 0.3083 -0.0692 0.9488
vn -0.8071 -0.0692 0.5864
vn -0.8071 -0.0692 -0.5864
vn 0.3083 -0.0692 -0.9488
vn 0.8071 0.0692 0.5864
vn -0.3083 0.0692 0.9488
vn -0.9976 0.0692 0.0000
vn -0.3083 0.0692 -0.9488
vn 0.8071 0.0692 -0.5864
vn 0.4911 0.7947 0.3568
vn -0.1876 0.7947 0.5774
vn -0.6071 0.7947 0.0000
vn -0.1876 0.7947 -0.5774
vn 0.4911 0.7947 -0.3568
s off
f 4/1/1 2/2/1 1/3/1
f 2/4/2 6/5/2 3/6/2
f 1/7/3 6/8/3 4/9/3
f 2/10/4 3/11/4 1/12/4
f 5/13/5 4/14/5 6/15/5
f 7/16/6 8/17/6 9/18/6
f 8/17/7 7/16/7 12/19/7
f 7/16/8 9/18/8 10/20/8
f 7/16/9 10/20/9 11/21/9
f 7/16/10 11/21/10 12/19/10
f 8/22/11 12/23/11 17/24/11
f 9/25/12 8/26/12 13/27/12
f 10/28/13 9/29/13 14/30/13
f 11/31/14 10/32/14 15/33/14
f 12/23/15 11/34/15 16/35/15
f 8/26/16 17/36/16 13/27/16
f 9/29/17 13/37/17 14/30/17
f 10/28/18 14/30/18 15/38/18
f 11/31/19 15/33/19 16/39/19
f 12/23/20 16/35/20 17/24/20
f 13/40/21 17/41/21 18/42/21
f 14/43/22 13/40/22 18/42/22
f 15/44/23 14/43/23 18/42/23
f 16/45/24 15/44/24 18/42/24
f 17/41/25 16/45/25 18/42/25
f 4/1/1 5/46/1 2/2/1
f 2/4/2 5/47/2 6/5/2
f 1/7/3 3/48/3 6/8/3
