# Blender v2.79 (sub 0) OBJ File: ''
# www.blender.org
o Cylinder
v 0.000000 -0.367105 -0.367105
v 0.000000 5.751123 -0.367105
v 0.349138 -0.367105 -0.113442
v 0.349138 5.751123 -0.113442
v 0.215779 -0.367105 0.296995
v 0.215779 5.751123 0.296995
v -0.215779 -0.367105 0.296995
v -0.215779 5.751123 0.296995
v -0.349138 -0.367105 -0.113442
v -0.349138 5.751123 -0.113442
v 0.000000 0.800524 0.000000
v 1.408370 1.876431 1.023229
v -0.537939 1.876431 1.655633
v -1.740854 1.876431 0.000000
v -0.537939 1.876431 -1.655633
v 1.408370 1.876431 -1.023229
v 0.537939 6.255765 1.655633
v -1.408370 6.255765 1.023229
v -1.408370 6.255765 -1.023229
v 0.537939 6.255765 -1.655633
v 1.740854 6.255765 0.000000
v 0.000000 7.331673 0.000000
vt 0.171654 0.014043
vt 0.149559 0.021875
vt 0.237279 0.022144
vt 0.162500 0.023418
vt 0.190404 0.037500
vt 0.140625 0.028394
vt 0.167580 0.035649
vt 0.142564 0.029658
vt 0.183205 0.021875
vt 0.063636 0.814461
vt 0.063636 0.859331
vt 0.024307 0.873196
vt 0.148814 0.002808
vt 0.129844 0.007515
vt 0.165184 0.042367
vt 0.142580 0.028125
vt 0.177683 0.034375
vt 0.127272 0.859331
vt 0.063636 0.836896
vt 0.087943 0.800596
vt 0.015454 -0.018417
vt 0.014267 0.037836
vt 0.048279 0.012572
vt 0.023282 0.044346
vt 0.034784 0.040819
vt 0.053534 0.059844
vt 0.029288 0.037500
vt 0.066509 0.014231
vt 0.028562 0.040697
vt 0.000000 0.004856
vt 0.050503 0.081322
vt 0.029445 0.037572
vt 0.035762 0.046947
vt 0.005172 0.037500
vt 0.047193 0.041802
vt 0.039267 0.056250
vt -0.001356 -0.020479
vt 0.047750 0.038421
vt 0.017344 0.028125
vt 0.036094 0.052578
vt -0.011616 0.017356
vt 0.048642 0.032981
vt 0.025318 0.052573
vt 0.033017 0.036948
vt 0.012137 -0.003053
vt 0.048642 0.078319
vt 0.019937 0.040958
vt 0.034375 0.031586
vt 0.027765 0.047471
vt 0.051767 0.094219
vt 0.146434 0.038774
vt 0.156029 0.026274
vt 0.000000 0.836896
vt 0.024307 0.800596
vt 0.151719 0.030664
vt 0.148830 0.020492
vt 0.127272 0.814461
vt 0.087943 0.873196
vn 0.5878 0.0000 -0.8090
vn 0.9511 0.0000 0.3090
vn -0.0000 0.0000 1.0000
vn 0.0000 1.0000 0.0000
vn -0.9511 0.0000 0.3090
vn -0.5878 0.0000 -0.8090
vn 0.0000 -1.0000 0.0000
vn 0.1876 -0.7947 0.5774
vn 0.6071 -0.7947 0.0000
vn -0.4911 -0.7947 0.3568
vn -0.4911 -0.7947 -0.3568
vn 0.1876 -0.7947 -0.5774
vn 0.9971 -0.0757 0.0000
vn 0.3081 -0.0757 0.9483
vn -0.8067 -0.0757 0.5861
vn -0.8067 -0.0757 -0.5861
vn 0.3081 -0.0757 -0.9483
vn 0.8067 0.0757 0.5861
vn -0.3081 0.0757 0.9483
vn -0.9971 0.0757 0.0000
vn -0.3081 0.0757 -0.9483
vn 0.8067 0.0757 -0.5861
vn 0.4911 0.7947 0.3568
vn -0.1876 0.7947 0.5774
vn -0.6071 0.7947 0.0000
vn -0.1876 0.7947 -0.5774
vn 0.4911 0.7947 -0.3568
s off
f 2/1/1 3/2/1 1/3/1
f 4/4/2 5/5/2 3/6/2
f 6/7/3 7/8/3 5/9/3
f 10/10/4 8/11/4 6/12/4
f 8/13/5 9/14/5 7/8/5
f 10/15/6 1/16/6 9/17/6
f 3/18/7 7/19/7 9/20/7
f 11/21/8 12/22/8 13/23/8
f 12/22/9 11/21/9 16/24/9
f 11/21/10 13/23/10 14/25/10
f 11/21/11 14/25/11 15/26/11
f 11/21/12 15/26/12 16/24/12
f 12/27/13 16/28/13 21/29/13
f 13/30/14 12/27/14 17/31/14
f 14/32/15 13/33/15 18/34/15
f 15/35/16 14/36/16 19/37/16
f 16/38/17 15/39/17 20/40/17
f 12/27/18 21/29/18 17/31/18
f 13/33/19 17/41/19 18/34/19
f 14/32/20 18/34/20 19/42/20
f 15/35/21 19/37/21 20/43/21
f 16/38/22 20/40/22 21/44/22
f 17/45/23 21/46/23 22/47/23
f 18/48/24 17/45/24 22/47/24
f 19/49/25 18/48/25 22/47/25
f 20/50/26 19/49/26 22/47/26
f 21/46/27 20/50/27 22/47/27
f 2/1/1 4/51/1 3/2/1
f 4/4/2 6/52/2 5/5/2
f 6/7/3 8/13/3 7/8/3
f 6/12/4 4/53/4 2/54/4
f 2/54/4 10/10/4 6/12/4
f 8/13/5 10/55/5 9/14/5
f 10/15/6 2/56/6 1/16/6
f 9/20/7 1/57/7 3/18/7
f 3/18/7 5/58/7 7/19/7
